# xmcd
#
# Track frame offsets:
#	150
#	12390
#	23532
#	38092
#	53015
#	65102
#	77535
#	88022
#	98497
#	108900
#	124705
#	136990
#	154685
#	199315
#	211725
#	227645
#	242092
#	261912
#
# Disc length: 3698 seconds
#
# Revision: 0
# Processed by: cddbd v1.4PL0 Copyright (c) Steve Scherf et al.
# Submitted via: dBpowerAMP V4.0
#
DISCID=e30e7012
DTITLE=Aretha Franklin - 20 Greatest Hits
DYEAR=1987
DGENRE=Soul
TTITLE0=I Never Loved a Man
TTITLE1=Respect
TTITLE2=Do right woman, Do Right Man
TTITLE3=Dr. Feelgood.
TTITLE4=(You make me feel like) A natural woman
TTITLE5=Chain Of Fools
TTITLE6=Save Me
TTITLE7=The House That Jack Built
TTITLE8=Think
TTITLE9=I Say A Little Prayer
TTITLE10=See Saw
TTITLE11=Day Dreaming
TTITLE12=Call Me
TTITLE13=Don´t Play that Song
TTITLE14=You're all I need To get By
TTITLE15=I'm in Love
TTITLE16=Spanish Harlem
TTITLE17=Rock Steady
EXTD=
EXTT0=
EXTT1=
EXTT2=
EXTT3=
EXTT4=
EXTT5=
EXTT6=
EXTT7=
EXTT8=
EXTT9=
EXTT10=
EXTT11=
EXTT12=
EXTT13=
EXTT14=
EXTT15=
EXTT16=
EXTT17=
PLAYORDER=
